<svg viewBox="0 0 24 24" xmlns="http://www.w3.org/2000/svg">
  <path
    fill="white"
    d="M12 2C6.48 2 2 6.58 2 12.26c0 4.5 2.87 8.32 6.84 9.67.5.1.68-.22.68-.48 0-.24-.01-1.04-.01-1.9-2.48.55-3.01-1.1-3.01-1.1-.45-1.18-1.12-1.5-1.12-1.5-.92-.64.07-.63.07-.63 1.02.07 1.56 1.07 1.56 1.07.9 1.58 2.36 1.12 2.94.86.09-.67.35-1.12.63-1.37-1.98-.23-4.07-1.03-4.07-4.61 0-1.02.36-1.86.95-2.51-.1-.24-.41-1.21.09-2.52 0 0 .76-.25 2.5.96a8.3 8.3 0 0 1 4.56 0c1.74-1.21 2.5-.96 2.5-.96.5 1.31.19 2.28.09 2.52.59.65.95 1.49.95 2.51 0 3.59-2.09 4.38-4.08 4.61.36.32.68.94.68 1.9 0 1.37-.01 2.47-.01 2.81 0 .26.18.59.69.48A10.03 10.03 0 0 0 22 12.26C22 6.58 17.52 2 12 2Z"
  />
</svg>
